<svg width="512" height="512" viewBox="0 0 512 512" fill="none" xmlns="http://www.w3.org/2000/svg" xmlns:xlink="http://www.w3.org/1999/xlink" class=""><rect id="r9" width="512" height="512" x="0" y="0" rx="0" fill="url(#ra)" stroke="#FFFFFF" stroke-width="0" stroke-opacity="100%" paint-order="stroke"></rect><clipPath id="clip"><use xlink:href="#r9"></use></clipPath><defs><radialGradient id="ra" cx="50%" cy="50%" r="100%" fx="50%" fy="50%" gradientUnits="objectBoundingBox"><stop stop-color="#FF5B5B"></stop><stop offset="1" stop-color="#942929"></stop></radialGradient><radialGradient id="rb" cx="0" cy="0" r="1" gradientUnits="userSpaceOnUse" gradientTransform="translate(256) rotate(90) scale(512)"><stop stop-color="white"></stop><stop offset="1" stop-color="white" stop-opacity="0"></stop></radialGradient></defs><svg xmlns="http://www.w3.org/2000/svg" width="352" height="352" viewBox="0 0 48 48" x="80" y="80" alignment-baseline="middle" style="color: rgb(255, 213, 213);"><path fill="none" stroke="currentColor" stroke-linecap="round" stroke-linejoin="round" d="M24 43.5c9.043-3.117 15.489-10.363 16.5-19.589a79.4 79.4 0 0 0-.071-12.027a2.54 2.54 0 0 0-2.468-2.366c-4.091-.126-8.846-.808-12.52-4.427a2.05 2.05 0 0 0-2.881 0c-3.675 3.619-8.43 4.301-12.52 4.427a2.54 2.54 0 0 0-2.468 2.366A79.4 79.4 0 0 0 7.5 23.911C8.511 33.137 14.957 40.383 24 43.5"></path><circle cx="17.781" cy="23.434" r="2.907" fill="none" stroke="currentColor" stroke-linecap="round" stroke-linejoin="round"></circle><circle cx="28.345" cy="18.139" r="2.907" fill="none" stroke="currentColor" stroke-linecap="round" stroke-linejoin="round"></circle><circle cx="28.39" cy="28.73" r="2.907" fill="none" stroke="currentColor" stroke-linecap="round" stroke-linejoin="round"></circle><path fill="none" stroke="currentColor" stroke-linecap="round" stroke-linejoin="round" d="m20.378 24.735l5.406 2.712m-.035-8.008l-5.371 2.695"></path></svg></svg>